<svg width="50" height="50" viewBox="0 0 50 50" fill="none" xmlns="http://www.w3.org/2000/svg">
<path d="M4.16663 4.16663H7.79163C10.0416 4.16663 11.8125 6.10413 11.625 8.33329L9.89579 29.0833C9.82828 29.8872 9.92847 30.6963 10.19 31.4594C10.4516 32.2226 10.8688 32.923 11.4153 33.5165C11.9617 34.1099 12.6254 34.5834 13.3644 34.9069C14.1034 35.2304 14.9016 35.3969 15.7083 35.3958H37.8958C40.8958 35.3958 43.5208 32.9375 43.75 29.9583L44.875 14.3333C45.125 10.875 42.5 8.06246 39.0208 8.06246H12.125M18.75 16.6666H43.75M33.8541 45.8333C34.5448 45.8333 35.2072 45.5589 35.6956 45.0705C36.1839 44.5822 36.4583 43.9198 36.4583 43.2291C36.4583 42.5385 36.1839 41.8761 35.6956 41.3877C35.2072 40.8993 34.5448 40.625 33.8541 40.625C33.1635 40.625 32.5011 40.8993 32.0127 41.3877C31.5243 41.8761 31.25 42.5385 31.25 43.2291C31.25 43.9198 31.5243 44.5822 32.0127 45.0705C32.5011 45.5589 33.1635 45.8333 33.8541 45.8333ZM17.1875 45.8333C17.8781 45.8333 18.5405 45.5589 19.0289 45.0705C19.5173 44.5822 19.7916 43.9198 19.7916 43.2291C19.7916 42.5385 19.5173 41.8761 19.0289 41.3877C18.5405 40.8993 17.8781 40.625 17.1875 40.625C16.4968 40.625 15.8344 40.8993 15.346 41.3877C14.8577 41.8761 14.5833 42.5385 14.5833 43.2291C14.5833 43.9198 14.8577 44.5822 15.346 45.0705C15.8344 45.5589 16.4968 45.8333 17.1875 45.8333Z" stroke="white" stroke-width="3.5" stroke-miterlimit="10" stroke-linecap="round" stroke-linejoin="round"/>
</svg>
