<svg width="30" height="30" viewBox="0 0 30 30" fill="none" xmlns="http://www.w3.org/2000/svg">
<path fill-rule="evenodd" clip-rule="evenodd" d="M15 0C6.71574 0 0 6.71573 0 15C0 23.2843 6.71574 30 15 30C23.2843 30 30 23.2843 30 15C30 6.71573 23.2843 0 15 0ZM17.9233 7.5C17.9233 7.7229 17.9442 7.94241 17.9825 8.15485C18.167 9.13693 18.7482 9.97971 19.5555 10.5056C20.1192 10.8747 20.7873 11.0872 21.5076 11.0872L21.5075 11.6618V13.6644C20.1712 13.6644 18.9325 13.236 17.9233 12.5116V17.7531C17.9233 20.3686 15.7937 22.5 13.1804 22.5C12.1713 22.5 11.2317 22.1795 10.4626 21.6397C9.23781 20.7795 8.4375 19.3585 8.4375 17.7531C8.4375 15.1341 10.5636 13.0062 13.1769 13.0096C13.3962 13.0096 13.6084 13.027 13.8172 13.0549V13.6643L13.8096 13.668L13.8172 13.6678V15.6878C13.6154 15.6251 13.3996 15.5868 13.1769 15.5868C11.9834 15.5868 11.0125 16.5585 11.0125 17.7531C11.0125 18.5855 11.4857 19.3063 12.1747 19.672C12.1812 19.6808 12.1877 19.6896 12.1943 19.6983L12.2058 19.7135C12.1979 19.6983 12.1887 19.6832 12.1783 19.6685C12.481 19.8288 12.822 19.9193 13.1839 19.9193C14.3496 19.9193 15.3031 18.9894 15.3448 17.8332L15.3483 7.5H17.9233Z" fill="white"/>
</svg>
