<svg width="50" height="50" viewBox="0 0 50 50" fill="none" xmlns="http://www.w3.org/2000/svg">
<path d="M42.8958 45.8333C42.8958 37.7708 34.875 31.25 25 31.25C15.125 31.25 7.10413 37.7708 7.10413 45.8333M25 25C27.7626 25 30.4122 23.9025 32.3657 21.949C34.3192 19.9955 35.4166 17.346 35.4166 14.5833C35.4166 11.8206 34.3192 9.1711 32.3657 7.2176C30.4122 5.26409 27.7626 4.16663 25 4.16663C22.2373 4.16663 19.5878 5.26409 17.6343 7.2176C15.6808 9.1711 14.5833 11.8206 14.5833 14.5833C14.5833 17.346 15.6808 19.9955 17.6343 21.949C19.5878 23.9025 22.2373 25 25 25Z" stroke="white" stroke-width="3.5" stroke-linecap="round" stroke-linejoin="round"/>
</svg>
