<svg width="20" height="23" viewBox="0 0 20 23" fill="none" xmlns="http://www.w3.org/2000/svg">
<path d="M3.40002 1.59998H16.6C17.7 1.59998 18.6 2.49998 18.6 3.59998V5.79998C18.6 6.59998 18.1 7.59998 17.6 8.09998L13.3 11.9C12.7 12.4 12.3 13.4 12.3 14.2V18.5C12.3 19.1 11.9 19.9 11.4 20.2L10 21.1C8.70002 21.9 6.90002 21 6.90002 19.4V14.1C6.90002 13.4 6.50002 12.5 6.10002 12L2.30002 7.99998C1.80002 7.49998 1.40002 6.59998 1.40002 5.99998V3.69998C1.40002 2.49998 2.30002 1.59998 3.40002 1.59998Z" stroke="white" stroke-width="1.5" stroke-miterlimit="10" stroke-linecap="round" stroke-linejoin="round"/>
</svg>
